<svg width="2275" height="296" viewBox="0 0 2275 296" fill="none" xmlns="http://www.w3.org/2000/svg">
<rect width="2275" height="296" rx="8" fill="url(#paint0_linear_1483_2131)"/>
<path d="M65.832 216.384V213.504H62.92V198.72H65.832V195.808H74.856V198.72H77.8V204.8H74.536V199.04H66.152V213.184H74.536V210.592H71.656V207.68H68.712V204.512H71.976V207.36H77.8V213.504H74.856V216.384H65.832ZM80.39 216.384V201.6H83.622V216.384H80.39ZM80.39 199.04V195.808H83.622V199.04H80.39ZM91.027 216.384V213.504H88.147V204.8H85.235V201.6H88.147V195.808H91.347V201.6H100.115V204.8H91.347V213.184H99.795V210.272H103.027V213.504H100.115V216.384H91.027ZM108.523 216.384V213.504H105.611V195.808H108.843V213.184H117.227V210.272H120.491V213.504H117.547V216.384H108.523ZM125.025 216.384V213.504H122.113V204.512H125.025V201.6H134.049V204.512H136.993V213.184H139.905V216.384H136.673V213.504H134.049V216.384H125.025ZM125.345 213.184H133.729V204.8H125.345V213.184ZM143.807 216.384V213.504H140.895V195.808H144.127V201.6H152.831V204.512H155.775V213.504H152.831V216.384H143.807ZM144.127 213.184H152.511V204.8H144.127V213.184ZM166.403 216.384V213.504H163.491V198.72H166.403V195.808H175.427V198.72H178.371V204.8H175.107V199.04H166.723V213.184H175.107V207.36H178.371V213.504H175.427V216.384H166.403ZM180.961 216.384V213.184H183.873V199.04H180.961V195.808H190.017V199.04H187.073V213.184H190.017V216.384H180.961ZM192.619 216.384L202.795 195.808H205.643L195.467 216.384H192.619ZM211.188 216.384V213.504H208.276V198.72H211.188V195.808H220.212V198.72H223.156V204.8H219.892V199.04H211.508V213.184H219.892V207.36H223.156V213.504H220.212V216.384H211.188ZM225.746 216.384V195.808H234.802V198.72H237.682V201.6H240.626V210.592H237.682V213.504H234.802V216.384H225.746ZM228.978 213.184H234.482V210.272H237.362V201.92H234.482V199.04H228.978V213.184ZM65.832 256.384V253.504H62.92V238.72H65.832V235.808H74.856V238.72H77.8V244.8H74.536V239.04H66.152V253.184H74.536V247.36H77.8V253.504H74.856V256.384H65.832ZM83.302 256.384V253.504H80.39V244.512H83.302V241.6H92.326V244.512H95.27V253.504H92.326V256.384H83.302ZM83.622 253.184H92.006V244.8H83.622V253.184ZM97.86 256.384V241.6H106.916V244.512H109.476V241.6H115.652V244.512H118.532V256.384H115.332V244.8H109.796V256.384H106.596V244.8H101.092V256.384H97.86ZM121.111 262.016V244.512H124.023V241.6H133.047V244.512H135.991V253.504H133.047V256.384H124.343V262.016H121.111ZM124.343 253.184H132.727V244.8H124.343V253.184ZM138.581 256.384V235.808H141.813V256.384H138.581ZM144.395 256.384V241.6H147.627V256.384H144.395ZM144.395 239.04V235.808H147.627V239.04H144.395ZM152.496 256.384V253.504H149.584V244.512H152.496V241.6H161.52V244.512H164.464V253.184H167.376V256.384H164.144V253.504H161.52V256.384H152.496ZM152.816 253.184H161.2V244.8H152.816V253.184ZM168.991 256.384V241.6H180.927V244.512H183.871V256.384H180.607V244.8H172.223V256.384H168.991ZM188.748 256.384V253.504H185.836V244.512H188.748V241.6H197.772V244.512H200.716V247.68H197.452V244.8H189.068V253.184H197.452V250.272H200.716V253.504H197.772V256.384H188.748ZM205.249 256.384V253.504H202.337V244.512H205.249V241.6H214.273V244.512H217.217V247.68H213.953V244.8H205.569V247.36H211.393V250.592H205.569V253.184H213.953V250.24H217.217V253.472H214.273V256.384H205.249ZM227.846 256.384V253.504H224.934V238.72H227.846V235.808H236.87V238.72H239.814V244.8H236.55V239.04H228.166V253.184H236.55V247.36H239.814V253.504H236.87V256.384H227.846ZM245.316 256.384V253.504H242.404V235.808H245.636V253.184H254.02V250.272H257.284V253.504H254.34V256.384H245.316ZM259.874 256.384V253.184H262.786V239.04H259.874V235.808H268.93V239.04H265.986V253.184H268.93V256.384H259.874Z" fill="white"/>
<path d="M212.773 121.201V75.4564H220.314V67.9151H243.684V75.4564H251.308V98.6604H243.684V106.202H221.143V121.201H212.773ZM221.143 97.8317H242.855V76.2851H221.143V97.8317ZM256.397 121.201V67.9151H264.767V121.201H256.397ZM277.376 121.201V113.743H269.835V82.9148H278.205V112.914H299.917V82.9148H308.37V113.743H300.746V121.201H277.376ZM315.077 121.201V82.9148H338.53V90.4561H345.16V82.9148H361.154V90.4561H368.612V121.201H360.325V91.202H345.988V121.201H337.701V91.202H323.447V121.201H315.077ZM381.215 121.201V113.743H373.673V67.9151H382.043V82.9148H404.584V90.4561H412.209V113.743H404.584V121.201H381.215ZM382.043 112.914H403.756V91.202H382.043V112.914ZM424.839 121.201V113.743H417.297V90.4561H424.839V82.9148H448.209V90.4561H455.833V98.6604H447.38V91.202H425.668V97.8317H440.75V106.202H425.668V112.914H447.38V105.29H455.833V113.66H448.209V121.201H424.839ZM462.54 121.201V90.4561H470.081V82.9148H493.451V90.4561H501.075V98.6604H492.623V91.202H470.91V121.201H462.54Z" fill="#F5F5F5"/>
<g clip-path="url(#clip0_1483_2131)">
<line x1="61" y1="66.7443" x2="181" y2="66.7443" stroke="#00D400" stroke-width="6.51134"/>
<line x1="61" y1="72.7404" x2="181" y2="72.7404" stroke="#00D400" stroke-width="6.51134"/>
<line x1="61" y1="60.7443" x2="181" y2="60.7443" stroke="#00DF00" stroke-width="6.51134"/>
<line x1="61" y1="54.7443" x2="181" y2="54.7443" stroke="#00DF00" stroke-width="6.51134"/>
<line x1="61" y1="48.7443" x2="181" y2="48.7443" stroke="#00EA00" stroke-width="6.51134"/>
<line x1="61" y1="42.7482" x2="181" y2="42.7482" stroke="#00EA00" stroke-width="6.51134"/>
<line x1="61" y1="78.7443" x2="181" y2="78.7443" stroke="#00C900" stroke-width="6.51134"/>
<line x1="61" y1="84.7482" x2="181" y2="84.7482" stroke="#00C900" stroke-width="6.51134"/>
<line x1="61" y1="90.7443" x2="181" y2="90.7443" stroke="#00BE00" stroke-width="6.51134"/>
<line x1="61" y1="96.7443" x2="181" y2="96.7443" stroke="#00BE00" stroke-width="6.51134"/>
<line x1="61" y1="102.744" x2="181" y2="102.744" stroke="#00B300" stroke-width="6.51134"/>
<line x1="61" y1="108.744" x2="181" y2="108.744" stroke="#00B300" stroke-width="6.51134"/>
<line x1="61" y1="114.74" x2="181" y2="114.74" stroke="#00A800" stroke-width="6.51134"/>
<line x1="61" y1="120.744" x2="181" y2="120.744" stroke="#00A800" stroke-width="6.51134"/>
<line x1="61" y1="126.748" x2="181" y2="126.748" stroke="#009D00" stroke-width="6.51134"/>
<line x1="61" y1="132.744" x2="181" y2="132.744" stroke="#009D00" stroke-width="6.51134"/>
<line x1="61" y1="138.744" x2="181" y2="138.744" stroke="#009200" stroke-width="6.51134"/>
<line x1="61" y1="144.744" x2="181" y2="144.744" stroke="#009200" stroke-width="6.51134"/>
<line x1="61" y1="150.744" x2="181" y2="150.744" stroke="#008700" stroke-width="6.51134"/>
<line x1="61" y1="156.744" x2="181" y2="156.744" stroke="#008700" stroke-width="6.51134"/>
<path d="M153.935 99.7852H139.855V94.7949H116.389V118.262H120.786V132.342H88.229V118.262H92.9224V80.7178H97.6147V76.0244L92.9224 76.0234H102.308V71.3301H107.002V71.3291H139.855V66.6367H153.935V99.7852Z" fill="#F5F5F5"/>
</g>
<defs>
<linearGradient id="paint0_linear_1483_2131" x1="0" y1="148" x2="2275" y2="148" gradientUnits="userSpaceOnUse">
<stop/>
<stop offset="0.658653" stop-color="#002C00"/>
<stop offset="0.850961" stop-color="#004500"/>
<stop offset="1" stop-color="#008700"/>
</linearGradient>
<clipPath id="clip0_1483_2131">
<rect x="61" y="40" width="120" height="120" rx="60" fill="white"/>
</clipPath>
</defs>
</svg>
